Coordinates
version=1
nRows=27
nColumns=12
inDegrees=yes

Units are S.I. units (second, meters, Newtons, ...)
Angles are in degrees

endheader
time	SC_y	SC_z	SC_x	AC_y	AC_z	AC_x	GH_y	GH_z	GH_yy	EL_x	PS_y
       0.0              -26.26          22.65          57.53          39.61         -19.23          11.11         -89.92          86.79         -153.6           36.3          77.41
  0.008356              -26.26          22.65          57.52          39.61         -19.23           11.1          -89.9          86.78         -153.6           36.3          77.42
   0.01671              -26.26          22.65          57.51          39.61         -19.23           11.1         -89.87          86.78         -153.5          36.31          77.43
   0.02507              -26.26          22.65          57.51          39.61         -19.22           11.1         -89.85          86.78         -153.5          36.31          77.43
   0.03342              -26.26          22.66           57.5          39.61         -19.22           11.1         -89.82          86.78         -153.5          36.31          77.44
   0.04178              -26.26          22.66          57.49          39.61         -19.22           11.1         -89.79          86.78         -153.4          36.32          77.44
   0.05013              -26.26          22.66          57.49          39.61         -19.22           11.1         -89.75          86.78         -153.4          36.32          77.45
   0.05849              -26.26          22.66          57.48          39.61         -19.22          11.09         -89.72          86.78         -153.3          36.32          77.46
   0.06685              -26.26          22.66          57.47          39.61         -19.22          11.09         -89.68          86.78         -153.3          36.33          77.47
    0.0752              -26.26          22.67          57.46          39.61         -19.22          11.09         -89.64          86.78         -153.2          36.33          77.48
   0.08356              -26.26          22.67          57.45          39.61         -19.21          11.09          -89.6          86.78         -153.2          36.33          77.49
   0.09191              -26.26          22.67          57.44          39.61         -19.21          11.08         -89.55          86.78         -153.1          36.34           77.5
    0.1003              -26.25          22.68          57.42          39.62         -19.21          11.08          -89.5          86.78         -153.0          36.34          77.51
    0.1086              -26.25          22.68          57.41          39.62         -19.21          11.08         -89.45          86.78         -153.0          36.35          77.52
     0.117              -26.25          22.68           57.4          39.62         -19.21          11.07         -89.39          86.78         -152.9          36.36          77.53
    0.1253              -26.25          22.69          57.38          39.62          -19.2          11.07         -89.33          86.78         -152.8          36.36          77.55
    0.1337              -26.25          22.69          57.36          39.62          -19.2          11.07         -89.26          86.77         -152.7          36.37          77.56
     0.142              -26.25          22.69          57.35          39.62          -19.2          11.06         -89.19          86.77         -152.6          36.38          77.58
    0.1504              -26.25           22.7          57.33          39.63          -19.2          11.06          -89.1          86.77         -152.5          36.39           77.6
    0.1588              -26.24          22.71           57.3          39.63         -19.19          11.05         -89.01          86.77         -152.4           36.4          77.62
    0.1671              -26.24          22.71          57.28          39.63         -19.19          11.04         -88.92          86.77         -152.3          36.41          77.64
    0.1755              -26.24          22.72          57.25          39.63         -19.18          11.04         -88.81          86.77         -152.1          36.42          77.66
    0.1838              -26.24          22.73          57.22          39.63         -19.18          11.03         -88.69          86.77         -151.9          36.43          77.69
    0.1922              -26.23          22.73          57.19          39.64         -19.17          11.02         -88.56          86.76         -151.8          36.44          77.72
    0.2005              -26.23          22.74          57.15          39.64         -19.17          11.01         -88.41          86.76         -151.6          36.46          77.75
    0.2089              -26.23          22.75          57.11          39.65         -19.16           11.0         -88.25          86.76         -151.4          36.48          77.78
    0.2173              -26.22          22.76          57.07          39.65         -19.16          10.99         -88.06          86.76         -151.1           36.5          77.83
